<svg xmlns="http://www.w3.org/2000/svg" version="1.1" xmlns:xlink="http://www.w3.org/1999/xlink" xmlns:svgjs="http://svgjs.dev/svgjs" width="128" height="128" viewBox="0 0 128 128"><g transform="matrix(0.8046875,0,0,0.8046875,12.48582990189567,11.122946068548387)"><svg viewBox="0 0 151 155" data-background-color="#242423" preserveAspectRatio="xMidYMid meet" height="131" width="128" xmlns="http://www.w3.org/2000/svg" xmlns:xlink="http://www.w3.org/1999/xlink"><g id="tight-bounds" transform="matrix(1,0,0,1,0.02077363896847828,0.25)"><svg viewBox="0 0 150.95845272206304 154.5" height="154.5" width="150.95845272206304"><g><svg viewBox="0 0 150.95845272206304 154.5" height="154.5" width="150.95845272206304"><g><svg viewBox="0 0 150.95845272206304 154.5" height="154.5" width="150.95845272206304"><g id="textblocktransform"><svg viewBox="0 0 150.95845272206304 154.5" height="154.5" width="150.95845272206304" id="textblock"><g><svg viewBox="0 0 150.95845272206304 154.5" height="154.5" width="150.95845272206304"><g transform="matrix(1,0,0,1,0,0)"><svg width="150.95845272206304" viewBox="2.55 -34.55 34.1 34.9" height="154.5" data-palette-color="#efdc9e"><g class="wordmark-text-0" data-fill-palette-color="primary" id="text-0"><path d="M22.6-25.85L22.6-25.85Q22.6-27.4 20.55-27.4L20.55-27.4Q18.45-27.4 16.95-25.05 15.45-22.7 15.45-17.2L15.45-17.2Q15.45-12.1 17.18-9.78 18.9-7.45 21.25-7.45L21.25-7.45Q22-7.45 22.63-7.75 23.25-8.05 23.65-8.65 24.05-9.25 24.05-10.1L24.05-10.1Q22.85-10.1 21.98-10.55 21.1-11 20.7-11.68 20.3-12.35 20.3-13.15L20.3-13.15Q20.3-14.95 21.25-15.85 22.2-16.75 24.5-16.75L24.5-16.75 30.55-16.75Q33.45-16.75 35.05-15.5 36.65-14.25 36.65-11.1L36.65-11.1Q36.65-6.5 32.25-3.08 27.85 0.35 21.8 0.35L21.8 0.35Q16.25 0.35 11.93-1.65 7.6-3.65 5.08-7.63 2.55-11.6 2.55-17.05L2.55-17.05Q2.55-25.15 7.45-29.85 12.35-34.55 20.45-34.55L20.45-34.55Q23.65-34.55 26.2-34.08 28.75-33.6 30.43-32.8 32.1-32 33.23-30.88 34.35-29.75 34.83-28.5 35.3-27.25 35.3-25.9L35.3-25.9Q35.3-24.95 35-24.08 34.7-23.2 33.93-22.33 33.15-21.45 31.55-20.9 29.95-20.35 27.7-20.35L27.7-20.35Q24.4-20.35 23.5-21.33 22.6-22.3 22.6-25.85Z" fill="#efdc9e" data-fill-palette-color="primary"></path></g></svg></g></svg></g></svg></g></svg></g><g></g></svg></g><defs></defs></svg><rect width="150.95845272206304" height="154.5" fill="none" stroke="none" visibility="hidden"></rect></g></svg></g></svg>