<svg xmlns="http://www.w3.org/2000/svg" version="1.1" xmlns:xlink="http://www.w3.org/1999/xlink" xmlns:svgjs="http://svgjs.dev/svgjs" width="2000" height="297" viewBox="0 0 2000 297"><g transform="matrix(1,0,0,1,-1.2121212121212466,0.28278948913364843)"><svg viewBox="0 0 396 59" data-background-color="#c8c8c8" preserveAspectRatio="xMidYMid meet" height="297" width="2000" xmlns="http://www.w3.org/2000/svg" xmlns:xlink="http://www.w3.org/1999/xlink"><g id="tight-bounds" transform="matrix(1,0,0,1,0.2400000000000091,-0.056177036561905425)"><svg viewBox="0 0 395.52 59.11235407312379" height="59.11235407312379" width="395.52"><g><svg viewBox="0 0 395.52 59.11235407312379" height="59.11235407312379" width="395.52"><g><svg viewBox="0 0 395.52 59.11235407312379" height="59.11235407312379" width="395.52"><g id="textblocktransform"><svg viewBox="0 0 395.52 59.11235407312379" height="59.11235407312379" width="395.52" id="textblock"><g><svg viewBox="0 0 395.52 59.11235407312379" height="59.11235407312379" width="395.52"><g transform="matrix(1,0,0,1,0,0)"><svg width="395.52" viewBox="2.55 -34.6 233.83999999999997 34.95" height="59.11235407312379" data-palette-color="#333533"><g class="wordmark-text-0" data-fill-palette-color="primary" id="text-0"><path d="M22.6-25.85L22.6-25.85Q22.6-27.4 20.55-27.4L20.55-27.4Q18.45-27.4 16.95-25.05 15.45-22.7 15.45-17.2L15.45-17.2Q15.45-12.1 17.18-9.78 18.9-7.45 21.25-7.45L21.25-7.45Q22-7.45 22.63-7.75 23.25-8.05 23.65-8.65 24.05-9.25 24.05-10.1L24.05-10.1Q22.85-10.1 21.98-10.55 21.1-11 20.7-11.68 20.3-12.35 20.3-13.15L20.3-13.15Q20.3-14.95 21.25-15.85 22.2-16.75 24.5-16.75L24.5-16.75 30.55-16.75Q33.45-16.75 35.05-15.5 36.65-14.25 36.65-11.1L36.65-11.1Q36.65-6.5 32.25-3.08 27.85 0.35 21.8 0.35L21.8 0.35Q16.25 0.35 11.93-1.65 7.6-3.65 5.08-7.63 2.55-11.6 2.55-17.05L2.55-17.05Q2.55-25.15 7.45-29.85 12.35-34.55 20.45-34.55L20.45-34.55Q23.65-34.55 26.2-34.08 28.75-33.6 30.43-32.8 32.1-32 33.23-30.88 34.35-29.75 34.83-28.5 35.3-27.25 35.3-25.9L35.3-25.9Q35.3-24.95 35-24.08 34.7-23.2 33.93-22.33 33.15-21.45 31.55-20.9 29.95-20.35 27.7-20.35L27.7-20.35Q24.4-20.35 23.5-21.33 22.6-22.3 22.6-25.85ZM61.3-24.3L61.3-24.3Q61.3-26.7 59.55-27.6 57.8-28.5 53.65-28.5L53.65-28.5 53.65-19.85Q57.55-19.85 59.42-20.83 61.3-21.8 61.3-24.3ZM53.65-12.35L53.65-7.5Q53.65 0 47.8 0L47.8 0Q44.85 0 43.47-1.58 42.1-3.15 42.1-7.15L42.1-7.15 42.1-28.25Q42.1-31.15 43.67-32.68 45.25-34.2 47.8-34.2L47.8-34.2 58.3-34.2Q64.45-34.2 68.25-31.33 72.05-28.45 72.05-23.95L72.05-23.95Q72.05-20.55 70.62-18.63 69.2-16.7 66.05-15.8L66.05-15.8Q68.45-15.65 70.5-13.48 72.55-11.3 72.55-8.05L72.55-8.05Q72.55-4.75 71.92-2.98 71.3-1.2 70.15-0.6 69 0 66.9 0L66.9 0Q63.95 0 62.57-1.23 61.2-2.45 61.2-4.95L61.2-4.95Q61.2-8.05 60.6-9.73 60-11.4 59.05-11.9 58.1-12.4 56.4-12.4L56.4-12.4 53.65-12.35ZM90.05-20.3L98.64-20.3Q101.3-20.3 102.37-19.45 103.44-18.6 103.44-16.55L103.44-16.55Q103.44-14.85 102.17-14.13 100.89-13.4 98.19-13.4L98.19-13.4 90.09-13.4 90.09-8.1 100.94-8.05Q103.75-8.05 104.97-7.23 106.19-6.4 106.19-4.3L106.19-4.3Q106.19-1.9 104.77-0.95 103.34 0 100.44 0L100.44 0 84.25 0Q81.3 0 79.92-1.58 78.55-3.15 78.55-7.15L78.55-7.15 78.55-28.25Q78.55-34.25 84.25-34.25L84.25-34.25 100.44-34.25Q103.34-34.25 104.77-33.35 106.19-32.45 106.19-30.1L106.19-30.1Q106.19-27.9 104.97-27.03 103.75-26.15 100.94-26.15L100.94-26.15 90.05-26.15 90.05-20.3ZM143.99-29.95L143.99-4.75Q143.99-2.55 142.69-1.28 141.39 0 138.89 0L138.89 0Q138.24 0 137.59-0.15 136.94-0.3 136.22-0.7 135.49-1.1 134.94-1.45 134.39-1.8 133.57-2.53 132.74-3.25 132.27-3.68 131.79-4.1 130.79-5.05 129.79-6 129.34-6.45L129.34-6.45 120.19-15.1 120.19-4.25Q120.19-1.8 119.27-0.9 118.34 0 116.34 0L116.34 0Q114.14 0 113.09-1 112.04-2 112.04-4.35L112.04-4.35 112.04-28.5Q112.04-31.35 113.49-32.8 114.94-34.25 117.64-34.25L117.64-34.25Q119.49-34.25 120.62-33.68 121.74-33.1 123.29-31.6L123.29-31.6 135.94-19 135.94-29.9Q135.94-32.05 137.02-33.13 138.09-34.2 139.94-34.2L139.94-34.2Q142.09-34.2 143.04-33.2 143.99-32.2 143.99-29.95L143.99-29.95ZM162.34-28.7L162.34-7.5Q162.34-3.6 160.89-1.8 159.44 0 156.49 0L156.49 0Q153.59 0 152.22-1.55 150.84-3.1 150.84-7.1L150.84-7.1 150.84-28.25Q150.84-34.25 156.49-34.25L156.49-34.25Q159.39-34.25 160.87-33.15 162.34-32.05 162.34-28.7L162.34-28.7ZM182.64-34.6L182.64-34.6Q188.59-34.6 192.79-32.15 196.99-29.7 196.99-26.95L196.99-26.95Q196.99-26.2 196.66-25.68 196.34-25.15 195.86-24.93 195.39-24.7 194.84-24.7L194.84-24.7Q193.94-24.7 192.14-25.63 190.34-26.55 188.14-27.48 185.94-28.4 184.09-28.4L184.09-28.4Q181.14-28.4 181.14-26L181.14-26Q181.14-25.25 181.61-24.58 182.09-23.9 183.14-23.18 184.19-22.45 185.19-21.9 186.19-21.35 187.94-20.43 189.69-19.5 190.89-18.8L190.89-18.8Q194.74-16.6 196.29-14.6 197.84-12.6 197.84-10L197.84-10Q197.84 0.35 183.89 0.35L183.89 0.35Q181.14 0.35 178.56-0.2 175.99-0.75 174.06-1.65 172.14-2.55 170.66-3.65 169.19-4.75 168.44-5.9 167.69-7.05 167.69-8.05L167.69-8.05Q167.69-9.15 168.41-9.93 169.14-10.7 170.54-10.7L170.54-10.7Q171.59-10.7 175.59-9.38 179.59-8.05 182.04-8.05L182.04-8.05Q184.29-8.05 184.29-9.6L184.29-9.6Q184.29-10.05 184.11-10.43 183.94-10.8 183.51-11.18 183.09-11.55 182.56-11.88 182.04-12.2 181.11-12.7 180.19-13.2 179.26-13.7 178.34-14.2 176.84-15 175.34-15.8 173.94-16.6L173.94-16.6Q172.09-17.65 170.76-19.2 169.44-20.75 168.84-22.28 168.24-23.8 168.24-25.1L168.24-25.1Q168.24-29.3 171.99-31.95 175.74-34.6 182.64-34.6ZM236.39-28.7L236.39-7.5Q236.39-3.45 234.94-1.73 233.49 0 230.54 0L230.54 0Q227.64 0 226.29-1.58 224.94-3.15 224.94-7.15L224.94-7.15 224.89-12.8 214.69-12.8 214.69-7.5Q214.69-3.4 213.29-1.7 211.89 0 208.84 0L208.84 0Q205.94 0 204.59-1.58 203.24-3.15 203.24-7.15L203.24-7.15 203.09-28.25Q203.09-31.35 204.66-32.8 206.24-34.25 208.84-34.25L208.84-34.25Q211.84-34.25 213.26-33.15 214.69-32.05 214.69-28.7L214.69-28.7 214.69-20.3 224.84-20.3 224.84-28.25Q224.84-30.35 225.61-31.73 226.39-33.1 227.61-33.68 228.84-34.25 230.54-34.25L230.54-34.25Q233.44-34.25 234.91-33.15 236.39-32.05 236.39-28.7L236.39-28.7Z" fill="#ffffff" data-fill-palette-color="primary"></path></g></svg></g></svg></g></svg></g></svg></g><g></g></svg></g><defs></defs></svg><rect width="395.52" height="59.11235407312379" fill="none" stroke="none" visibility="hidden"></rect></g></svg></g></svg>