<svg xmlns="http://www.w3.org/2000/svg" version="1.1" xmlns:xlink="http://www.w3.org/1999/xlink" viewBox="0 0 700 700" style="overflow: hidden; display: block;" width="700" height="700"><defs></defs><g id="two-0" transform="matrix(1 0 0 1 0 0)" opacity="1"><path transform="matrix(1 0 0 1 350 350)" id="two-6" d="M 206.077226 60.509733 C 179.900036 82.031006 120.86211 37.415741 103.563872 66.556459 C 81.936565 102.989955 180.259543 146.456238 158.304592 182.693238 C 145.725825 203.454696 106.962637 175.782224 84.806205 185.699686 C 62.910326 195.500521 58.09981 235.780458 34.20352 237.890712 C 9.085144 240.108886 -2.581505 194.192266 -27.778154 193.201298 C -60.065735 191.931449 -80.665483 234.249712 -111.455127 244.052684 C -145.035531 254.744193 -189.496001 272.313019 -217.982491 251.565204 C -244.42295 232.307593 -247.295124 187.542214 -241.679174 155.317773 C -234.549995 114.410395 -168.625177 91.898699 -172.039505 50.515356 C -173.91482 27.785609 -207.496457 19.571554 -219.205959 0 C -231.996769 -21.378881 -256.137131 -50.03713 -243.469054 -71.488965 C -225.831158 -101.35658 -166.00051 -67.015353 -139.995068 -89.969367 C -126.342209 -102.020226 -126.120867 -124.629735 -123.622609 -142.668096 C -117.474735 -187.058038 -169.12461 -262.722336 -127.150702 -278.4212 C -75.9088 -297.58643 -76.114356 -145.433345 -21.644837 -150.543146 C 18.32393 -154.292628 -2.911012 -261.719949 36.971035 -257.139201 C 74.109765 -252.873544 34.345489 -165.106896 67.628097 -148.084878 C 95.452665 -133.854314 133.170112 -201.407111 156.550534 -180.668949 C 180.485372 -159.439026 114.10559 -111.124643 134.296955 -86.307413 C 170.892931 -41.327255 286.628896 -144.099805 309.951882 -91.010085 C 326.773246 -52.719896 242.230618 -36.467148 221.75517 -0.000001 C 211.656256 17.98635 222.011146 47.409844 206.077226 60.509733 Z " fill="#0a2342" stroke="undefined" stroke-width="1" stroke-opacity="1" fill-opacity="1" visibility="visible" stroke-linecap="butt" stroke-linejoin="miter" stroke-miterlimit="4"></path></g></svg>